<svg width="12" height="12" viewBox="0 0 12 12" fill="none" xmlns="http://www.w3.org/2000/svg">
<g clip-path="url(#clip0_252_1923)">
<path d="M6 10.5L5.46967 11.0303C5.76256 11.3232 6.23744 11.3232 6.53033 11.0303L6 10.5ZM4.53033 7.96967C4.23744 7.67678 3.76256 7.67678 3.46967 7.96967C3.17678 8.26256 3.17678 8.73744 3.46967 9.03033L4.53033 7.96967ZM8.53033 9.03033C8.82322 8.73744 8.82322 8.26256 8.53033 7.96967C8.23744 7.67678 7.76256 7.67678 7.46967 7.96967L8.53033 9.03033ZM4.25 4C4.25 3.0335 5.0335 2.25 6 2.25L6 0.75C4.20508 0.75 2.75 2.20507 2.75 4L4.25 4ZM6 2.25C6.9665 2.25 7.75 3.0335 7.75 4L9.25 4C9.25 2.20507 7.79493 0.75 6 0.75L6 2.25ZM7.75 4C7.75 4.9665 6.9665 5.75 6 5.75L6 7.25C7.79493 7.25 9.25 5.79493 9.25 4L7.75 4ZM6 5.75C5.0335 5.75 4.25 4.9665 4.25 4L2.75 4C2.75 5.79492 4.20507 7.25 6 7.25L6 5.75ZM5.25 6.5L5.25 10.5L6.75 10.5L6.75 6.5L5.25 6.5ZM6.53033 9.96967L4.53033 7.96967L3.46967 9.03033L5.46967 11.0303L6.53033 9.96967ZM6.53033 11.0303L8.53033 9.03033L7.46967 7.96967L5.46967 9.96967L6.53033 11.0303Z" fill="#1D1D1D"/>
</g>
<defs>
<clipPath id="clip0_252_1923">
<rect width="12" height="12" fill="white" transform="translate(12 12) rotate(-180)"/>
</clipPath>
</defs>
</svg>
