<svg width="1440" height="419" viewBox="0 0 1440 419" fill="none" xmlns="http://www.w3.org/2000/svg">
<path d="M494 76.0531C330 76.0531 283.5 36.553 192.5 6.05301C128.075 -15.54 36.6774 25.9721 0 47.053L3.43323e-05 419H1440L1440 101.053C1376.5 76.8864 1218 32.253 1082 47.053C912 65.553 879.5 -4.94702 770 6.05298C660.5 17.053 658 76.0531 494 76.0531Z" fill="#4E4E4E"/>
<path d="M407.5 98.9999C328.171 88.6618 279 52.9999 188 22.4999C123.575 0.906836 52 -2.50013 0 12.4998V419H1440L1440 112.5C1320 37.4999 1205 53.6587 1087 66.4999C917 84.9998 859.353 -15.791 753 12.4998C651.5 39.4999 595.5 123.5 407.5 98.9999Z" fill="url(#paint0_linear_258_2119)"/>
<defs>
<linearGradient id="paint0_linear_258_2119" x1="720" y1="-53.1826" x2="720" y2="884.5" gradientUnits="userSpaceOnUse">
<stop stop-color="#353535"/>
<stop offset="1"/>
</linearGradient>
</defs>
</svg>
