<svg width="18" height="18" viewBox="0 0 18 18" fill="none" xmlns="http://www.w3.org/2000/svg">
<g clip-path="url(#clip0_252_1927)">
<path d="M11.25 5.10287L11.9745 4.90876C11.8673 4.50866 11.456 4.27122 11.0559 4.37843L11.25 5.10287ZM11.2576 8.02904C11.3648 8.42914 11.7761 8.66658 12.1762 8.55937C12.5763 8.45216 12.8137 8.04091 12.7065 7.64081L11.2576 8.02904ZM8.32386 5.11048C7.92376 5.21769 7.68632 5.62894 7.79353 6.02904C7.90074 6.42914 8.31199 6.66658 8.71209 6.55937L8.32386 5.11048ZM9.51557 11.607C9.03232 12.4441 7.96204 12.7308 7.12502 12.2476L6.37502 13.5466C7.92948 14.4441 9.91714 13.9115 10.8146 12.357L9.51557 11.607ZM7.12502 12.2476C6.28801 11.7643 6.00123 10.6941 6.48448 9.85704L5.18544 9.10704C4.28798 10.6615 4.82057 12.6492 6.37502 13.5466L7.12502 12.2476ZM6.48448 9.85704C6.96773 9.02003 8.03801 8.73325 8.87502 9.2165L9.62502 7.91746C8.07057 7.01999 6.0829 7.55259 5.18544 9.10704L6.48448 9.85704ZM8.87502 9.2165C9.71204 9.69974 9.99882 10.77 9.51557 11.607L10.8146 12.357C11.7121 10.8026 11.1795 8.81492 9.62502 7.91746L8.87502 9.2165ZM9.89954 8.94198L11.8995 5.47787L10.6005 4.72787L8.60051 8.19198L9.89954 8.94198ZM10.5256 5.29699L11.2576 8.02904L12.7065 7.64081L11.9745 4.90876L10.5256 5.29699ZM11.0559 4.37843L8.32386 5.11048L8.71209 6.55937L11.4441 5.82732L11.0559 4.37843Z" fill="#1D1D1D"/>
</g>
<defs>
<clipPath id="clip0_252_1927">
<rect width="12" height="12" fill="white" transform="translate(6.80371 0.803833) rotate(30)"/>
</clipPath>
</defs>
</svg>
